<svg xmlns="http://www.w3.org/2000/svg" xmlns:xlink="http://www.w3.org/1999/xlink" x="0" y="0" version="1.1" viewBox="0 0 200 144" xml:space="preserve" style="enable-background:new 0 0 200 144"><style type="text/css">.st0{opacity:.3}.st0,.st1{fill:#bad80a}.st2{fill:#757575}.st3{fill:#682a7a}.st4{fill:#2e2e2e}.st5{fill:#478aa9}.st6{fill:#672a79}.st7{fill:#334d63}.st8{fill:#5d5f5e}.st9{fill:#4889a8}.st10{fill:#929090}.st11{fill:#fab516}.st12{fill:#f5891f}.st13{fill:#cb6d29}.st14{fill:#96bbcd}.st15{fill:#3a5c71}.st17{clip-path:url(#SVGID_2_)}.st22{clip-path:url(#SVGID_4_)}.st23{fill:#474748}</style><g id="Layer_1"><g><rect width="200" height="148" y="-2" class="st0"/><path d="M151,7c-22.3,0-40.5,18.2-40.5,40.5S128.7,88,151,88c22.3,0,40.5-18.2,40.5-40.5S173.3,7,151,7z M158,83.3 c-0.7,0.1-1.3,0.2-2,0.3c2.3-3.2,4.3-7.4,5.8-12.5h8.7C167.3,76.4,162.9,80.6,158,83.3z M131.6,71.1h7.3c1.5,4.9,3.4,9.1,5.6,12.2 c-0.1,0-0.2,0-0.3,0C139.2,80.7,134.8,76.4,131.6,71.1z M122.3,50.3c0.3,6.5,1.9,12.5,4.4,17.9H121c-3.6-5.2-5.8-11.3-6.3-17.9 H122.3z M114.5,47.3c0-5.2,1.2-10.2,3.2-14.7h6.7c-1.4,4.6-2.2,9.5-2.2,14.7H114.5z M144.4,11.6c0.5-0.1,1-0.2,1.4-0.2 c-3.7,4-6.6,10.3-8.3,18.3h-8.9C132,21.6,137.6,15.2,144.4,11.6z M173.4,29.7h-10.2c-1.7-8-4.6-14.4-8.3-18.4 c0.9,0.1,1.8,0.2,2.7,0.4C164.4,15.2,170,21.6,173.4,29.7z M174.5,32.6c1.5,4.5,2.4,9.5,2.4,14.7H165c0-5.2-0.4-10.2-1.2-14.7 H174.5z M138.7,47.3c0-5.2,0.5-10.2,1.3-14.7h20.8c0.8,4.5,1.3,9.5,1.3,14.7H138.7z M162,50.3c-0.2,6.5-1.1,12.6-2.5,17.9h-18.4 c-1.4-5.3-2.3-11.4-2.5-17.9H162z M140.5,29.7c2-9,5.6-15.8,10-18.5c4.1,3.1,7.6,9.8,9.6,18.5H140.5z M136.9,32.6 c-0.8,4.5-1.2,9.4-1.2,14.7h-10.5c0-5.2,0.9-10.1,2.4-14.7H136.9z M125.2,50.3h10.5c0.2,6.5,1,12.6,2.3,17.9h-8.2 C127.3,62.9,125.6,56.8,125.2,50.3z M151,84c-0.8,0-1.6-0.1-2.3-0.1c-2.6-2.8-4.9-7.2-6.7-12.7h16.7c-1.7,5.6-4.1,10-6.7,12.8 C151.6,84,151.3,84,151,84z M162.6,68.2c1.3-5.3,2.1-11.4,2.3-17.9h11.9c-0.4,6.5-2,12.6-4.7,17.9H162.6z M179.8,50.3h7.5 c-0.5,6.6-2.7,12.7-6.3,17.9h-5.6C177.9,62.8,179.5,56.8,179.8,50.3z M179.9,47.3c0-5.2-0.8-10.1-2.2-14.7h6.6 c2,4.5,3.2,9.4,3.2,14.7H179.9z M182.8,29.7h-6.2c-2.3-5.9-5.7-11-9.8-15C173.5,17.9,179.1,23.2,182.8,29.7z M135.4,14.5 c-4.2,4-7.6,9.2-10,15.1h-6.3C122.9,23.1,128.6,17.8,135.4,14.5z M123.2,71.1h4.9c2,3.6,4.5,6.6,7.2,9.3 C130.7,78.2,126.6,75,123.2,71.1z M166.8,80.3c2.7-2.6,5.1-5.7,7.1-9.2h4.8C175.5,75,171.4,78.1,166.8,80.3z" class="st1"/><g><polygon points="14 36.4 13.3 35.7 31 21.9 31.5 22.5" class="st2"/><g><rect width="1.6" height="82.8" x="27.9" y="46.7" class="st2"/><rect width="1.6" height="83.3" x="38.9" y="46.2" class="st2"/><rect width="10.7" height="1.4" x="29.5" y="87.5" class="st2"/><rect width="9.7" height="1.6" x="29.5" y="97.7" class="st2"/><polygon points="28.1 99.2 29.7 99.2 34.3 94.5 38.9 99.2 40.2 99.2 40.2 98 35.4 93.3 40.2 88.6 40.2 87.5 38.9 87.5 34.3 92.1 29.5 87.5 28.1 87.5 28.1 88.3 33.2 93.3 28.1 98.4" class="st2"/><rect width="9.7" height="1.4" x="29.5" y="77.2" class="st2"/><polygon points="28.1 88.8 29.7 88.8 34.3 84.2 38.9 88.8 40.2 88.8 40.2 87.8 35.4 83.1 40.2 78.3 40.2 77.2 38.9 77.2 34.3 81.8 29.5 77.2 28.1 77.2 28.1 78 33.2 83.1 28.1 88" class="st2"/><polygon points="28.1 78.6 29.7 78.6 34.3 74 38.9 78.6 40.2 78.6 40.2 77.6 35.4 72.9 40.2 68.1 40.2 67 38.9 67 34.3 71.6 29.5 67 28.1 67 28.1 67.8 33.2 72.9 28.1 77.8" class="st2"/><rect width="9.7" height="1.4" x="29.5" y="66.8" class="st2"/><polygon points="28.1 68.2 29.7 68.2 34.3 63.6 38.9 68.2 40.2 68.2 40.2 67.1 35.4 62.5 40.2 57.7 40.2 56.6 38.9 56.6 34.3 61.2 29.5 56.6 28.1 56.6 28.1 57.4 33.2 62.5 28.1 67.4" class="st2"/><rect width="9.7" height="1.4" x="29.5" y="56.4" class="st2"/><rect width="12.6" height="1.6" x="27.9" y="45.1" class="st2"/><polygon points="28.1 57.9 29.7 57.9 34.3 53.3 38.9 57.9 40.2 57.9 40.2 56.9 35.4 52.1 40.2 47.4 40.2 46.2 38.9 46.2 34.3 50.9 29.5 46.2 28.1 46.2 28.1 47 33.2 52.1 28.1 57.1" class="st2"/><rect width="9.7" height="1.4" x="29.5" y="108.1" class="st2"/><polygon points="28.1 109.5 29.7 109.5 34.3 104.7 38.9 109.5 40.2 109.5 40.2 108.4 35.4 103.6 40.2 98.8 40.2 97.7 38.9 97.7 34.3 102.5 29.5 97.7 28.1 97.7 28.1 98.5 33.2 103.6 28.1 108.7" class="st2"/><rect width="9.7" height="1.6" x="29.5" y="118.1" class="st3"/><rect width="9.7" height="1.6" x="29.5" y="118.1" class="st2"/><polygon points="28.1 119.6 29.7 119.6 34.3 114.9 38.9 119.6 40.2 119.6 40.2 118.6 35.4 113.8 40.2 109 40.2 107.9 38.9 107.9 34.3 112.5 29.5 107.9 28.1 107.9 28.1 108.7 33.2 113.8 28.1 118.8" class="st2"/><polygon points="28.1 129.6 29.7 129.6 34.3 124.9 38.9 129.6 40.2 129.6 40.2 128.6 35.4 123.8 40.2 119 40.2 117.9 38.9 117.9 34.3 122.5 29.5 117.9 28.1 117.9 28.1 118.7 33.2 123.8 28.1 128.8" class="st2"/><rect width="12" height="1.6" x="28.3" y="128" class="st2"/></g><rect width="6.9" height="11.8" x="6.8" y="33.8" class="st4"/><polygon points="78.7 30.3 31.2 22.5 31.4 21.7 78.7 29.5" class="st2"/><rect width="1.3" height="14.2" x="30.4" y="22.2" class="st2"/><polygon points="30.9 22.2 32 21.9 36.9 36 35.5 36" class="st2"/><rect width="3.2" height="1.1" x="31.4" y="32.1" class="st2"/><rect width="2.1" height="1" x="31.4" y="28.6" class="st2"/><rect width="2.1" height="1" x="31.4" y="28.6" class="st2"/><path d="M35.5,36.4h-0.2l-4-2.9c-0.2-0.2-0.2-0.3,0-0.5c0.2-0.2,0.3-0.3,0.5-0.2l3.8,2.9c0.2,0.2,0.3,0.3,0.2,0.5 C35.8,36.4,35.7,36.4,35.5,36.4" class="st2"/><path d="M31.7,32.5c-0.2,0-0.2,0-0.3-0.2c-0.2,0-0.2-0.3,0-0.5l1.8-2.6c0.2-0.2,0.3-0.2,0.5-0.2 c0.2,0.2,0.2,0.3,0.2,0.5L32,32.4C31.8,32.4,31.7,32.5,31.7,32.5" class="st2"/><path d="M31.7,36.4c-0.2,0-0.3,0-0.3-0.2c-0.2,0-0.2-0.3,0-0.5l3-2.9c0.2-0.2,0.3-0.2,0.5,0c0.2,0.2,0.2,0.5,0,0.6 l-3,2.7C31.8,36.4,31.7,36.4,31.7,36.4" class="st2"/><polygon points="41.6 36.7 26.4 36.7 26.4 45.6 41.6 45.6 43.3 39.9" class="st5"/><rect width="1.8" height="5.3" x="34.9" y="38.4" class="st6"/><rect width="1.8" height="5.3" x="34.9" y="38.4" class="st7"/><polygon points="40.9 38.4 38.1 38.4 38.1 43.7 40.8 43.7 41.7 40" class="st6"/><polygon points="40.9 38.4 38.1 38.4 38.1 43.7 40.8 43.7 41.7 40" class="st7"/><polygon points="49.5 29.5 93.7 29.5 94.6 30.3 49.5 30.3" class="st2"/><polygon points="43.3 36 42 36 49.2 29.5 50.5 29.5" class="st2"/><polygon points="43.3 36 42 36 49.2 29.5 50.5 29.5" class="st2"/><rect width="94.2" height="2.2" x="6.8" y="36" class="st5"/><g><polygon points="57.7 36 56.4 36 63.7 29.5 64.8 29.5" class="st2"/><g><polygon points="56.5 36 57.7 36 50.5 29.5 49.2 29.5" class="st2"/><rect width=".8" height="5.7" x="56.7" y="30.3" class="st2"/><rect width=".6" height="5.7" x="49.5" y="30.3" class="st2"/><polygon points="57.7 36 56.4 36 63.7 29.5 64.8 29.5" class="st2"/><polygon points="70.9 36 72.2 36 64.8 29.5 63.7 29.5" class="st2"/><rect width=".6" height="5.7" x="71.2" y="30.3" class="st2"/><rect width=".8" height="5.7" x="63.9" y="30.3" class="st2"/><polygon points="72.2 36 70.9 36 78.1 29.5 79.3 29.5" class="st2"/><polygon points="86.5 36 85.4 36 92.6 29.5 93.7 29.5" class="st2"/><polygon points="85.4 36 86.5 36 79.3 29.5 78.1 29.5" class="st2"/><rect width=".8" height="5.7" x="85.6" y="30.3" class="st2"/><rect width=".6" height="5.7" x="78.4" y="30.3" class="st2"/><rect width=".8" height="5.7" x="92.7" y="30.3" class="st2"/></g></g><path d="M32.2,22.2c0,0.5-0.5,0.8-1,0.8c-0.5,0-0.8-0.3-0.8-0.8c0-0.5,0.3-0.8,0.8-0.8 C31.7,21.4,32.2,21.7,32.2,22.2" class="st2"/><polygon points="12.5 141.6 56.2 141.6 53.5 128.4 15.2 128.4" class="st4"/><polygon points="99.8 36 101 36 93.7 29.5 92.6 29.5" class="st2"/><rect width=".8" height="5.7" x="92.7" y="30.3" class="st2"/><rect width=".8" height="23.1" x="93" y="38.4" class="st2"/><path d="M95.5,35.2c-0.3,0-0.6,0.3-0.6,0.6V36h-3v-0.2c0-0.3-0.3-0.6-0.8-0.6c-0.3,0-0.6,0.3-0.6,0.6V36v1.4v2.9h5.7 v-2.9V36v-0.2C96.1,35.6,95.8,35.2,95.5,35.2" class="st8"/></g><g><g><g><rect width="3.2" height="16.2" x="94.4" y="125" class="st10"/></g><g><rect width="3.2" height="16.2" x="149.4" y="125" class="st10"/></g></g><g><g><rect width="19.7" height="19.7" x="88.2" y="119.3" class="st11"/></g><g><rect width="51.6" height="19.7" x="107.6" y="119.3" class="st12"/></g><rect width="17" height="1.2" x="89.3" y="128.7" class="st12"/><rect width="17" height="1.2" x="89.3" y="132.5" class="st12"/><rect width="17" height="1.2" x="89.3" y="125" class="st12"/><g><polygon points="110.2 120.6 109.2 120.6 109.2 121.1 110.2 122.3 110.2 137.6 111.5 137.6 111.5 120.6" class="st13"/><polygon points="121.6 137.6 122.8 137.6 122.8 120.6 121.6 120.6 120.5 120.6 120.5 121.1 121.6 122.3" class="st13"/><polygon points="132.9 137.6 134.1 137.6 134.1 120.6 132.9 120.6 131.9 120.6 131.9 121.1 132.9 122.3" class="st13"/><polygon points="144.2 137.6 145.4 137.6 145.4 120.6 144.2 120.6 143.2 120.6 143.2 121.1 144.2 122.3" class="st13"/><polygon points="155.5 120.6 154.5 120.6 154.5 121.1 155.5 122.3 155.5 137.6 156.8 137.6 156.8 120.6" class="st13"/></g></g></g><g><g><rect width="19.7" height="19.7" x="54.1" y="60.4" class="st14"/></g><g><rect width="51.6" height="19.7" x="73.5" y="60.4" class="st9"/></g><rect width="17" height="1.2" x="55.2" y="69.8" class="st9"/><rect width="17" height="1.2" x="55.2" y="73.5" class="st9"/><rect width="17" height="1.2" x="55.2" y="66.1" class="st9"/><g><polygon points="76.1 61.7 75.1 61.7 75.1 62.2 76.1 63.4 76.1 78.7 77.3 78.7 77.3 61.7" class="st15"/><polygon points="87.5 78.7 88.7 78.7 88.7 61.7 87.5 61.7 86.4 61.7 86.4 62.2 87.5 63.4" class="st15"/><polygon points="98.8 78.7 100 78.7 100 61.7 98.8 61.7 97.8 61.7 97.8 62.2 98.8 63.4" class="st15"/><polygon points="110.1 78.7 111.3 78.7 111.3 61.7 110.1 61.7 109.1 61.7 109.1 62.2 110.1 63.4" class="st15"/><polygon points="121.4 61.7 120.4 61.7 120.4 62.2 121.4 63.4 121.4 78.7 122.6 78.7 122.6 61.7" class="st15"/></g></g><g><g><rect width="19.7" height="19.7" x="88.2" y="99.9" class="st14"/></g><g><rect width="51.6" height="19.7" x="107.6" y="99.9" class="st9"/></g><rect width="17" height="1.2" x="89.3" y="109.3" class="st9"/><rect width="17" height="1.2" x="89.3" y="113" class="st9"/><rect width="17" height="1.2" x="89.3" y="105.5" class="st9"/><g><polygon points="110.2 101.2 109.2 101.2 109.2 101.7 110.2 102.9 110.2 118.2 111.4 118.2 111.4 101.2" class="st15"/><polygon points="121.5 118.2 122.7 118.2 122.7 101.2 121.5 101.2 120.5 101.2 120.5 101.7 121.5 102.9" class="st15"/><polygon points="132.9 118.2 134.1 118.2 134.1 101.2 132.9 101.2 131.8 101.2 131.8 101.7 132.9 102.9" class="st15"/><polygon points="144.2 118.2 145.4 118.2 145.4 101.2 144.2 101.2 143.2 101.2 143.2 101.7 144.2 102.9" class="st15"/><polygon points="155.5 101.2 154.5 101.2 154.5 101.7 155.5 102.9 155.5 118.2 156.7 118.2 156.7 101.2" class="st15"/></g></g></g><g><g><defs><rect id="SVGID_1_" width="200" height="139.4" x="280.3" y="6.7"/></defs><clipPath id="SVGID_2_"><use xlink:href="#SVGID_1_" style="overflow:visible"/></clipPath><g class="st17"><g><g><defs><circle id="SVGID_5_" cx="359.7" cy="67.6" r="44.7"/></defs><clipPath id="SVGID_4_"><use xlink:href="#SVGID_5_" style="overflow:visible"/></clipPath><g class="st22"><rect width="380.5" height="215.4" x="100.3" y="-33.3" class="st23"/><rect width="334.1" height="186.7" x="109" y="-8.3" class="st4"/></g></g></g></g></g></g></g></svg>