<svg xmlns="http://www.w3.org/2000/svg" xmlns:xlink="http://www.w3.org/1999/xlink" id="Layer_1" x="0" y="0" version="1.1" viewBox="0 0 200 144" xml:space="preserve" style="enable-background:new 0 0 200 144"><style type="text/css">.st0{opacity:.3;fill:#ffb900}.st1{clip-path:url(#SVGID_2_)}.st2{fill:#a8dceb}.st3{fill:#2f75bb}.st4{fill:#549dd5}.st5{fill:#5e5e5e}.st6{fill:#2e2e2e}.st7{fill:#221f1f}.st8{fill:#fff}.st9{fill:#5e615f}.st10{fill:#acacac}.st11{fill:none;stroke:#767676;stroke-width:.199;stroke-miterlimit:10}</style><g><rect width="200" height="144" class="st0"/><g><defs><rect id="SVGID_1_" width="200" height="148" y="-4"/></defs><clipPath id="SVGID_2_"><use xlink:href="#SVGID_1_" style="overflow:visible"/></clipPath><g class="st1"><path d="M147.7,23.6c-8.3,0-16.3,1.6-23.5,4.5L-47.6,89.3l172.9,57c7,2.6,14.6,6.1,22.5,6.1 c35,0,63.4-30.4,63.4-65.4S182.7,23.6,147.7,23.6z" class="st2"/><g><rect width="96.6" height="53" x="40.8" y="39.2" class="st3"/><polygon points="137.4 67.3 137.4 38.4 108.5 38.4" class="st4"/><g><polygon points="110.6 103.8 68.9 103.8 71.3 101 108.2 101" class="st5"/><path d="M108.9,105.3c-1.9,0-36.5,0-38.3,0c-1.8,0-1.8-1.6-1.8-1.6h41.8C110.6,103.8,110.8,105.3,108.9,105.3z" class="st6"/><polygon points="98.8 102 80.7 102 82.2 93.7 97.3 93.7" class="st6"/><path d="M138.3,38H40.9c-1.2,0-2.3,1-2.3,2.3v52c0,1.2,1,2.3,2.3,2.3h97.4c1.2,0,2.3-1,2.3-2.3v-52 C140.5,39,139.5,38,138.3,38z M137.1,90.6H42V40.9h95.1V90.6z" class="st7"/><polygon points="129.6 111.6 50.9 111.6 55.5 106.4 125 106.4" class="st5"/><polygon points="122.4 110 58.1 110 60.4 107 120.2 107" class="st6"/><path d="M126.5,113.6c-3.5,0-69,0-72.4,0c-3.3,0-3.4-2-3.4-2h78.9C129.6,111.6,130,113.6,126.5,113.6z" class="st6"/></g><g><polygon points="85.6 65 85.6 53.8 73.9 55.3 73.9 65" class="st8"/><polygon points="87 65 102.3 65 102.3 51.6 87 53.6" class="st8"/><polygon points="87 66.3 87 77.8 102.3 79.9 102.3 66.3" class="st8"/><polygon points="85.6 66.3 73.9 66.3 74 76 85.6 77.6" class="st8"/></g></g><g><g><path d="M182.4,113V68.5c0-1-0.8-1.7-1.7-1.7h-61.7c-1,0-1.7,0.8-1.7,1.7V113H182.4z" class="st7"/><path d="M187.8,118c-2,0-73.1,0-75.6,0s-2.9-2.6-2.9-2.6h81.5C190.7,115.3,189.7,118,187.8,118z" class="st7"/><rect width="1" height=".9" x="149.5" y="68.3" class="st9"/><rect width="1.9" height="1.7" x="149.1" y="108.2" class="st9"/><g><rect width="58.5" height="36.3" x="120.5" y="70.2" class="st3"/><polygon points="179 70.2 156.6 70.2 179 91.1" class="st4"/></g><polygon points="109.2 115.3 117.2 112.5 182.4 112.5 190.7 115.3" class="st10"/><polygon points="118.6 114.1 120.9 113.1 178.5 113.1 180.9 114.1" class="st5"/></g><g><polygon points="147.3 87.2 147.3 77.9 137.7 79.2 137.7 87.2" class="st8"/><polygon points="148.5 87.2 161.1 87.2 161.1 76.1 148.5 77.8" class="st8"/><polygon points="148.5 88.3 148.5 97.8 161.1 99.5 161.1 88.3" class="st8"/><polygon points="147.3 88.3 137.7 88.3 137.7 96.3 147.3 97.6" class="st8"/></g></g><g><path d="M13.2,97.5L61,99.7c0.7,0,1.4-0.6,1.4-1.3V57.5c0-0.7-0.6-1.3-1.4-1.3l-47.8,2.2c-0.7,0-1.2,0.6-1.2,1.3 v36.4C12,96.9,12.5,97.5,13.2,97.5z" class="st7"/><polygon points="14.9 94 58.5 95.8 58.5 59.9 14.9 61.6" class="st3"/><polygon points="58.5 76.2 58.5 59.9 42.8 60.5" class="st4"/><g><polygon points="34.4 77 34.4 68.4 25.4 69.6 25.4 77" class="st8"/><polygon points="35.4 77 47.3 77 47.3 66.7 35.4 68.3" class="st8"/><polygon points="35.4 78 35.4 86.9 47.3 88.5 47.3 78" class="st8"/><polygon points="34.4 78 25.4 78 25.4 85.5 34.4 86.8" class="st8"/></g></g><g><g><path d="M125.4,131.1h-20.3c-1.1,0-2-0.9-2-2v-43c0-1.1,0.9-2,2-2h20.3c1.1,0,2,0.9,2,2v43 C127.4,130.3,126.5,131.1,125.4,131.1z" class="st6"/><path d="M103.1,125v5c0,0.6,0.5,1.2,1.2,1.2h22c0.6,0,1.2-0.5,1.2-1.2v-5H103.1z" class="st6"/><rect width="20.6" height="34.2" x="104.9" y="89.8" class="st3"/><g><path d="M118.3,87h-6.2c-0.3,0-0.6-0.3-0.6-0.6s0.3-0.6,0.6-0.6h6.2c0.3,0,0.6,0.3,0.6,0.6S118.6,87,118.3,87z" class="st11"/></g><circle cx="107.7" cy="127.6" r=".7" class="st10"/><circle cx="122.4" cy="127.6" r=".7" class="st10"/><polygon points="115.9 128.2 114.5 128.1 114.5 127 115.9 126.8" class="st10"/></g><polygon points="125.5 108.3 125.5 89.8 107.1 89.8" class="st4"/><g><polygon points="114.1 103 114.1 98 108.8 98.7 108.8 103" class="st8"/><polygon points="114.7 103 121.6 103 121.6 97 114.7 97.9" class="st8"/><polygon points="114.7 103.6 114.7 108.8 121.6 109.7 121.6 103.6" class="st8"/><polygon points="114.1 103.6 108.8 103.6 108.9 108 114.1 108.7" class="st8"/></g></g></g></g></g></svg>