<svg xmlns="http://www.w3.org/2000/svg" xmlns:xlink="http://www.w3.org/1999/xlink" x="0" y="0" version="1.1" viewBox="0 0 200 144" xml:space="preserve" style="enable-background:new 0 0 200 144"><style type="text/css">.st39{opacity:.3;fill:#ffd565}.st40{fill:#804998}.st41{opacity:.2;fill:#fff;enable-background:new}.st44{fill:none}.st45{font-family:&apos;MyriadPro-Regular&apos;}.st46{font-size:12px}</style><g id="Layer_1"><rect width="200" height="144" class="st39"/><g><polygon points="93.8 45 71 53.9 71 17.2 93.8 25.2" class="st40"/><path d="M50.5,23.4v24l16.9,6.5V17.5L50.5,23.4z M52.3,45.6l-0.9-0.3V25.5l0.9-0.3l0.9-0.3l0.9-0.3v21.6l-0.9-0.3 L52.3,45.6z M56.7,46.8l-1.2-0.3V24.3l1.2-0.3l1.2-0.3l1.2-0.3v24.3l-1.2-0.3L56.7,46.8z M62.1,48.6L60.6,48V22.8l1.5-0.3l1.5-0.6 l1.8-0.6v28.2l-1.8-0.6L62.1,48.6z" class="st40"/><polygon points="146.8 45 124 53.9 124 17.2 146.8 25.2" class="st40"/><path d="M103.6,23.4v24l16.9,6.5V17.5L103.6,23.4z M105.3,45.6l-0.9-0.3V25.5l0.9-0.3l0.9-0.3l0.9-0.3v21.6l-0.9-0.3 L105.3,45.6z M109.8,46.8l-1.2-0.3V24.3l1.2-0.3l1.2-0.3l1.2-0.3v24.3l-1.2-0.3L109.8,46.8z M115.1,48.6l-1.5-0.6V22.8l1.5-0.3 l1.5-0.6l1.8-0.6v28.2l-1.8-0.6L115.1,48.6z" class="st40"/><polygon points="93.8 117.9 71 126.8 71 90.1 93.8 98.1" class="st40"/><path d="M50.5,96.3v24l16.9,6.5V90.4L50.5,96.3z M52.3,118.5l-0.9-0.3V98.4l0.9-0.3l0.9-0.3l0.9-0.3v21.6l-0.9-0.3 L52.3,118.5z M56.7,119.7l-1.2-0.3V97.2l1.2-0.3l1.2-0.3l1.2-0.3v24.3l-1.2-0.3L56.7,119.7z M62.1,121.5l-1.5-0.6V95.7l1.5-0.3 l1.5-0.6l1.8-0.6v28.2l-1.8-0.6L62.1,121.5z" class="st40"/><polygon points="146.8 117.9 124 126.8 124 90.1 146.8 98.1" class="st40"/><path d="M103.6,96.3v24l16.9,6.5V90.4L103.6,96.3z M105.3,118.5l-0.9-0.3V98.4l0.9-0.3l0.9-0.3l0.9-0.3v21.6 l-0.9-0.3L105.3,118.5z M109.8,119.7l-1.2-0.3V97.2l1.2-0.3l1.2-0.3l1.2-0.3v24.3l-1.2-0.3L109.8,119.7z M115.1,121.5l-1.5-0.6 V95.7l1.5-0.3l1.5-0.6l1.8-0.6v28.2l-1.8-0.6L115.1,121.5z" class="st40"/><polygon points="121.9 81.5 99.4 90.1 99.4 53.6 121.9 61.6" class="st40"/><path d="M78.7,59.6v24l16.9,6.5V53.6L78.7,59.6z M80.4,81.8l-0.9-0.3V61.6l0.9-0.3l0.9-0.3l0.9-0.3v21.6l-0.9-0.3 L80.4,81.8z M84.9,83.3L83.7,83V60.7l1.2-0.3l1.2-0.3l1.2-0.3v24.3l-1.2-0.3L84.9,83.3z M90.2,85l-1.5-0.6V59.3l1.5-0.3l1.5-0.6 l1.8-0.6v28.2l-1.8-0.6L90.2,85z" class="st40"/><polygon points="69.2 81.5 46.7 90.1 46.7 53.6 69.2 61.6" class="st40"/><path d="M25.9,59.6v24l16.9,6.5V53.6L25.9,59.6z M27.7,81.8l-0.9-0.3V61.6l0.9-0.3l0.9-0.3l0.9-0.3v21.6l-0.9-0.3 L27.7,81.8z M32.1,83.3L31,83V60.7l1.2-0.3l1.2-0.3l1.2-0.3v24.3l-1.2-0.3L32.1,83.3z M37.5,85L36,84.4V59.3l1.5-0.3l1.5-0.6 l1.8-0.6v28.2L39,85.3L37.5,85z" class="st40"/><polygon points="174.1 81.5 151.6 90.1 151.6 53.6 174.1 61.6" class="st40"/><polygon points="93.8 45 71 53.9 71 17.2 93.8 25.2" class="st41"/><polygon points="146.8 45 124 53.9 124 17.2 146.8 25.2" class="st41"/><polygon points="93.8 117.9 71 126.8 71 90.1 93.8 98.1" class="st41"/><polygon points="146.8 117.9 124 126.8 124 90.1 146.8 98.1" class="st41"/><polygon points="121.9 81.5 99.4 90.1 99.4 53.6 121.9 61.6" class="st41"/><polygon points="69.2 81.5 46.7 90.1 46.7 53.6 69.2 61.6" class="st41"/><polygon points="174.1 81.5 151.6 90.1 151.6 53.6 174.1 61.6" class="st41"/><path d="M130.8,59.6v24l16.9,6.5V53.6L130.8,59.6z M132.6,81.8l-0.9-0.3V61.6l0.9-0.3l0.9-0.3l0.9-0.3v21.6l-0.9-0.3 L132.6,81.8z M137,83.3l-1.2-0.3V60.7l1.2-0.3l1.2-0.3l1.2-0.3v24.3l-1.2-0.3L137,83.3z M142.4,85l-1.5-0.6V59.3l1.5-0.3l1.5-0.6 l1.8-0.6v28.2l-1.8-0.6L142.4,85z" class="st40"/></g></g><g id="titles"><rect width="161.7" height="25.6" y="-25.5" class="st44"/><text class="st45 st46" transform="matrix(1 0 0 1 0 -16.9676)">ASP.NET Apps in Containers</text></g></svg>