<svg xmlns="http://www.w3.org/2000/svg" xmlns:xlink="http://www.w3.org/1999/xlink" id="Layer_1" x="0" y="0" version="1.1" viewBox="0 0 200 144" xml:space="preserve" style="enable-background:new 0 0 200 144"><style type="text/css">.st0{opacity:.3;fill:#00bcf2}.st1{fill:#00b294}.st2{clip-path:url(#SVGID_2_)}.st3{fill-rule:evenodd;clip-rule:evenodd;fill:none;stroke:#bad80a;stroke-width:1.5437;stroke-linecap:round;stroke-linejoin:round;stroke-miterlimit:10}.st4{fill:#464646}.st5{fill:#231f20}.st6,.st7,.st8{fill-rule:evenodd;clip-rule:evenodd;fill:#5c2d91}.st7,.st8{fill:none;stroke:#5c2d91;stroke-width:.721;stroke-miterlimit:10}.st8{stroke-dasharray:.721,.721}</style><g><rect width="200" height="144" class="st0"/><g><rect width="139.2" height="76" x="31" y="19.7" class="st1"/><g><defs><rect id="SVGID_1_" width="139.2" height="76" x="31" y="19.7"/></defs><clipPath id="SVGID_2_"><use xlink:href="#SVGID_1_" style="overflow:visible"/></clipPath><g class="st2"><polyline points="56.7 96.5 56.7 53.1 76.4 53.1" class="st3"/><polyline points="123.4 20 123.4 41.4 105.5 41.4 105.5 61.1 79.4 61.1 79.4 83.9 43.1 83.9 43.1 97.5" class="st3"/><path d="M29.9,73.8h13.4c0,0,0-9.3,0-16.4S46.6,41.2,59,41.2s16.7,0,24.8,0s16.7-4.5,16.7-13.4s0-14.4,0-14.4" class="st3"/><line x1="75.2" x2="75.2" y1="41.2" y2="20.2" class="st3"/><polyline points="57.2 41.2 57.2 30.1 40.6 30.1" class="st3"/><path d="M91.1,97.8c0,0,0-6.8,0-14.9s1.5-13.4,15.7-13.4s54,0,54,0V25.8h12.6" class="st3"/><polyline points="109.2 96.5 109.2 80.3 125.4 80.3 125.4 51 174.7 51" class="st3"/><path d="M168.9,88.2c0,0-2.3,0-10.6,0c-9.6,0-16.7-2.8-16.7-14.4c0-17.2,0-41.4,0-41.4" class="st3"/></g></g><polygon points="129.8 111.7 70.7 111.7 74.2 107.8 126.3 107.8" class="st4"/><path d="M127.4,113.9c-2.6,0-51.8,0-54.3,0s-2.6-2.2-2.6-2.2h59.2C129.8,111.7,130.1,113.9,127.4,113.9z" class="st5"/><polygon points="113 109.1 87.4 109.1 89.5 97.4 111 97.4" class="st5"/><polygon points="156.8 122.8 45.2 122.8 51.7 115.4 150.2 115.4" class="st4"/><polygon points="146.5 120.5 55.4 120.5 58.6 116.2 143.3 116.2" class="st5"/><path d="M152.3,125.5c-5,0-97.8,0-102.6,0s-4.8-2.8-4.8-2.8h111.8C156.8,122.8,157.3,125.5,152.3,125.5z" class="st5"/><path d="M86.2,93.3l0.1-0.8c0.7-2.3,0.1-4.7-1.3-6.5l1.7-10.1c0.4-1.2-0.3-2.6-1.6-3c-1.2-0.4-2.6,0.3-3,1.6l-3.8,9.2 c-2.4,0.5-4.5,2.2-5.2,4.7l-2,4.8H86.2z" class="st6"/><path d="M169,18.5H31c-1.8,0-3.2,1.4-3.2,3.2v73.7c0,1.8,1.4,3.2,3.2,3.2h138c1.8,0,3.2-1.4,3.2-3.2V21.7 C172.2,19.9,170.7,18.5,169,18.5z M167.3,93H32.5V22.6h134.8V93z" class="st5"/><g><path d="M83.1,56.6c-1.2,3.8,1,7.9,4.8,9c1.7,0.5,3.5,0.4,5-0.3c1.9-0.8,3.4-2.4,4-4.5c1.2-3.8-1-7.9-4.8-9 C88.4,50.6,84.3,52.8,83.1,56.6z" class="st7"/><line x1="81" x2="85.1" y1="55.9" y2="57.2" class="st7"/><line x1="94.9" x2="99" y1="60.2" y2="61.5" class="st7"/><line x1="91.4" x2="92.7" y1="53.8" y2="49.6" class="st7"/><line x1="89.3" x2="90.5" y1="60.8" y2="56.7" class="st7"/><line x1="86.2" x2="88.8" y1="70.8" y2="62.4" class="st8"/><line x1="87.9" x2="92" y1="58" y2="59.3" class="st7"/></g></g></g></svg>