<svg xmlns="http://www.w3.org/2000/svg" xmlns:xlink="http://www.w3.org/1999/xlink" id="Layer_1" x="0" y="0" version="1.1" viewBox="0 0 200 144" xml:space="preserve" style="enable-background:new 0 0 200 144"><style type="text/css">.st10{fill:#fff}.st12{fill:#333}.st13{fill:none;stroke:#fff;stroke-width:.1454;stroke-linecap:round;stroke-linejoin:round;stroke-miterlimit:10}.st14{fill:#737374}.st15{fill:#515050}.st16{stroke:#000;stroke-width:.2907;stroke-miterlimit:1}.st16,.st17{fill:none}.st22{opacity:.3;fill:#b4a0ff}.st23{fill:#00bcf2}.st24{fill:#019fb5}</style><rect width="200" height="144" class="st22"/><g><g><polygon points="111.7 92.3 88.1 51.4 111.7 10.5 158.9 10.5 182.5 51.4 158.9 92.3" class="st23"/></g><g><polygon points="41.1 133.5 17.5 92.6 41.1 51.7 88.3 51.7 111.9 92.6 88.3 133.5" class="st24"/></g><g><path d="M68,86.3h-2.5v5.8c0,1.5-0.6,2.7-2.4,2.7c-1.8,0-2.3-1.2-2.3-2.7v-5.7h-2.5v6.3c0,1.8,0.6,4.4,4.1,4.5 c1.9,0,2.8-0.9,3.3-1.7v1.4H68V86.3z" class="st10"/><path d="M69,96.8h2.5V91c0-1.5,0.6-2.6,2.4-2.7c1.8,0,2.3,1.2,2.3,2.8v5.7h2.5v-6.3c0-1.8-0.6-4.5-4.1-4.5 c-1.9,0-2.8,0.9-3.3,1.7c0-0.5,0-0.9,0-1.4H69V96.8z" class="st10"/><path d="M79.5,84.9H82v-2.2h-2.5V84.9z M79.5,96.8H82V86.3h-2.5V96.8z" class="st10"/><path d="M84.7,96.8h2.5v-8.5h1.8l-0.7-1.9h-1v-3.6h-2.5v3.6h-1.7v1.9h1.7V96.8z" class="st10"/><path d="M91.3,100.4H94l5.5-14.1h-2.7l-2.5,6.9l-2.5-6.9h-2.7l3.9,10L91.3,100.4z" class="st10"/><path d="M53.5,88.8l-2.8-10.3l-10.4,2.8l-1.5,2.7l-3.1,0l-7.6,7.6l7.6,7.6h0l3.1,0l1.5,2.7l10.4,2.8l2.8-10.3 l-1.6-2.7L53.5,88.8z M47,82.3l-4.5,7.9h-9.1l5.7-5.8L47,82.3z M42.4,92.8l4.6,7.9l-7.9-2l-5.7-5.8H42.4z M44.6,91.5l4.5-7.9 l2.2,7.9l-2.2,7.9L44.6,91.5z" class="st10"/></g><g><polygon points="116 36.6 112.1 50.9 160 50.9 156.6 36.6 152.8 34 146.6 33.8 143.1 34.4 128.3 34.4 125.2 33.3 119.8 34.4" class="st12"/><polygon points="116 36.6 112.1 50.9 160 50.9 156.6 36.6 152.8 34 146.6 33.8 143.1 34.4 128.3 34.4 125.2 33.3 119.8 34.4" class="st13"/><path d="M156.5,36.4c-0.1-0.4-0.4-1.1-0.4-1.3c-0.1-0.3-0.7-0.6-1.5-1.1c-0.8-0.4-3.7-1.8-4.7-2c-1.1-0.3-2-0.3-2.6-0.3 c-0.6,0-1.2,0.2-1.6,0.4c-0.4,0.2-1.8,1.1-2.4,1.1l-7,0l-7,0c-0.6,0-2-0.9-2.4-1.1c-0.4-0.2-1-0.3-1.6-0.3c-0.6,0-1.6,0-2.6,0.3 c-1.1,0.2-3.9,1.6-4.7,2c-0.9,0.4-1.4,0.8-1.5,1.1c-0.1,0.3-0.5,1.5-0.5,1.5c1.8-1.1,6.7-2.5,8.6-2.5c1.8,0,2.6,1.7,3.9,3.4 c1.9,2.5,2.4,2.9,3.7,2.9l8,0c1.3,0,1.8-0.4,3.7-2.9c1.3-1.8,2.1-3.4,3.9-3.4c1.8,0,6.7,1.4,8.6,2.5L156.5,36.4z"/><path d="M158.3,38.2c-0.5-1.4-1.7-1.7-1.7-1.7s-0.1-0.1-0.1-0.2l-0.2,0.2c-1.8-1.1-6.7-2.5-8.6-2.5 c-1.8,0-2.6,1.7-3.9,3.4c-1.8,2.5-2.4,2.9-3.7,2.9l-8,0c-1.3,0-1.8-0.3-3.7-2.9c-1.3-1.8-2.1-3.4-3.9-3.4c-1.8,0-6.7,1.4-8.6,2.5 c0,0-1.1,0.3-1.7,1.7c-0.7,1.8-6.8,17.2-6.8,23.2c0,8,5.8,8.8,6.4,8.8c0.5,0,6.6-6.2,8.5-8.1c1.9-1.8,3.5-1.8,4.7-1.8l9.2,0l9.2,0 c1.2,0,2.8,0,4.7,1.8c1.9,1.8,8,8.1,8.5,8.1c0.6,0,6.4-0.8,6.4-8.8C165.1,55.4,159,40,158.3,38.2" class="st12"/><path d="M149.1,52.6c0,3-2.5,5.4-5.4,5.4c-3,0-5.4-2.5-5.4-5.4c0-3,2.5-5.4,5.4-5.4 C146.7,47.2,149.1,49.6,149.1,52.6" class="st14"/><path d="M148.4,52.6c0,2.6-2.1,4.7-4.7,4.7c-2.6,0-4.7-2.1-4.7-4.7c0-2.6,2.1-4.7,4.7-4.7 C146.3,47.9,148.4,50,148.4,52.6" class="st12"/><path d="M133.5,52.6c0,2.6-2.1,4.7-4.7,4.7c-2.6,0-4.7-2.1-4.7-4.7c0-2.6,2.1-4.7,4.7-4.7 C131.4,47.9,133.5,50,133.5,52.6" class="st14"/><path d="M125.7,49c-1.1,0.9-1.7,2.2-1.7,3.6c0,2.6,2.1,4.7,4.7,4.7c1.4,0,2.7-0.6,3.6-1.7L125.7,49z"/><path d="M143.7,57.3c1.4,0,2.5-0.5,3.4-1.5l-6.7-6.7c-0.9,0.9-1.5,2.1-1.5,3.4C138.9,55.2,141,57.3,143.7,57.3" class="st15"/><path d="M126.9,43.1c0,3.1-2.4,5.4-5.4,5.4c-3,0-5.4-2.4-5.4-5.4c0-3,2.5-5.4,5.4-5.4 C124.5,37.7,126.9,40.2,126.9,43.1" class="st14"/><path d="M126.2,43.1c0,2.6-2.1,4.7-4.7,4.7c-2.6,0-4.7-2.1-4.7-4.7c0-2.5,2.1-4.7,4.7-4.7 C124,38.4,126.2,40.6,126.2,43.1" class="st12"/><path d="M121.4,47.9c1.4,0,2.5-0.5,3.4-1.4l-6.7-6.7c-0.9,0.9-1.5,2.1-1.5,3.4C116.7,45.8,118.8,47.9,121.4,47.9" class="st15"/><path d="M153,47.3c0,1.2-1,2.2-2.1,2.2c-1.2,0-2.2-1-2.2-2.2c0-1.1,1-2.1,2.2-2.1C152.1,45.1,153,46.1,153,47.3"/><path d="M153,39.6c0,1.1-1,2.1-2.1,2.1c-1.2,0-2.2-1-2.2-2.1c0-1.2,1-2.2,2.2-2.2C152.1,37.4,153,38.4,153,39.6"/><path d="M156.7,43.5c0,1.2-1,2.2-2.1,2.2c-1.2,0-2.2-1-2.2-2.2c0-1.1,1-2.1,2.2-2.1C155.8,41.4,156.7,42.3,156.7,43.5"/><path d="M149.4,43.5c0,1.2-1,2.2-2.2,2.2c-1.1,0-2.1-1-2.1-2.2c0-1.1,1-2.1,2.1-2.1C148.4,41.4,149.4,42.3,149.4,43.5"/><path d="M146.9,52.6c0,1.8-1.5,3.2-3.2,3.2c-1.8,0-3.2-1.5-3.2-3.2s1.4-3.2,3.2-3.2 C145.4,49.4,146.9,50.8,146.9,52.6" class="st15"/><path d="M133.6,43.6c0,0.8-0.6,1.5-1.4,1.5s-1.4-0.7-1.4-1.5c0-0.8,0.6-1.4,1.4-1.4C133,42.2,133.6,42.8,133.6,43.6"/><path d="M141.8,43.5c0,0.8-0.6,1.4-1.4,1.4c-0.8,0-1.4-0.6-1.4-1.4c0-0.8,0.6-1.4,1.4-1.4C141.2,42.1,141.8,42.7,141.8,43.5"/><path d="M132.5,51.2l-2.4,0l0-2.4c0-0.3-0.2-0.4-0.4-0.4l-2,0c-0.3,0-0.4,0.2-0.4,0.4l0,2.4l-2.4,0 c-0.3,0-0.4,0.2-0.4,0.4l0,1.9c0,0.3,0.2,0.4,0.4,0.4l2.4,0l0,2.4c0,0.3,0.2,0.4,0.4,0.4l2,0c0.2,0,0.4-0.2,0.4-0.4l0-2.4l2.4,0 c0.3,0,0.4-0.2,0.4-0.4l0-1.9C133,51.4,132.8,51.2,132.5,51.2" class="st14"/><path d="M141.5,50.2c-0.6,0.6-1,1.5-1,2.4c0,1.8,1.4,3.2,3.2,3.2c1,0,1.8-0.4,2.4-1.1L141.5,50.2z" class="st14"/><path d="M124.7,43.1c0,1.8-1.4,3.2-3.2,3.2c-1.8,0-3.2-1.4-3.2-3.2c0-1.8,1.4-3.2,3.2-3.2 C123.3,40,124.7,41.4,124.7,43.1" class="st15"/><path d="M119.2,40.9c-0.6,0.5-1,1.4-1,2.3c0,1.8,1.4,3.2,3.2,3.2c1,0,1.8-0.4,2.4-1.1L119.2,40.9z" class="st14"/><path d="M132.5,51.2l-2.4,0l0-2.4c0-0.3-0.2-0.4-0.4-0.4l-2,0c-0.3,0-0.4,0.2-0.4,0.4l0,2.4l2.8,2.8l2.4,0 c0.3,0,0.4-0.2,0.4-0.4l0-1.9C133,51.4,132.8,51.2,132.5,51.2" class="st15"/><circle cx="143.7" cy="52.6" r="2.5" class="st16"/><path d="M124,43.1c0,1.4-1.1,2.5-2.5,2.5c-1.4,0-2.5-1.1-2.5-2.5c0-1.3,1.1-2.5,2.5-2.5 C122.8,40.7,124,41.8,124,43.1z" class="st16"/><rect width="57.8" height="38.6" x="107.6" y="31.8" class="st17"/></g></g></svg>