<svg xmlns="http://www.w3.org/2000/svg" xmlns:xlink="http://www.w3.org/1999/xlink" id="Layer_1" x="0" y="0" version="1.1" viewBox="0 0 200 144" xml:space="preserve" style="enable-background:new 0 0 200 144"><style type="text/css">.st0{opacity:.3;fill:#b4a0ff}.st1{fill:#e6e6e6}.st2{fill:#2e2e2e}.st3{fill:#08bbf1}.st4{fill:#5d5f5e}.st5{fill:#0bc8f4}.st6{fill:#fff}</style><g><rect width="200" height="144" class="st0"/><g><polygon points="189 100.1 72.9 100.1 72.9 20.8 88.4 20.8 89.3 16.9 130.9 18.8 173.5 16.9 174.5 20.8 189 20.8" class="st1"/><g><path d="M190.9,17.9V102l-120,1V18.8h15.5V15h34.8c1.8,0,3.5,0.3,5.1,0.8c1.6,0.5,3.2,1.4,4.5,2.4 c1.4-1.1,2.9-1.9,4.5-2.4c1.6-0.5,3.4-0.8,5.1-0.8l34.8-1v3.9H190.9z M74.8,99.1h55.3c-0.6-0.6-1.3-1.2-2-1.6 c-0.7-0.5-1.4-0.9-2.1-1.2c-0.7-0.3-1.5-0.6-2.3-0.8c-0.8-0.2-1.7-0.3-2.6-0.3H86.4V22.7H74.8V99.1z M90.3,91.4h31 c1.3,0,2.7,0.2,4,0.5c1.3,0.3,2.6,0.8,3.7,1.5V21.6c-1.1-0.9-2.3-1.6-3.6-2.1c-1.3-0.5-2.7-0.7-4.1-0.7h-31V91.4z M187,21.7 h-11.6v72.6l-34.8,1c-0.9,0-1.8,0.1-2.6,0.3c-0.8,0.2-1.6,0.4-2.3,0.8c-0.7,0.3-1.4,0.7-2.1,1.2c-0.7,0.5-1.3,1-2,1.6l55.3-1 V21.7z M140.6,18.8c-1.4,0-2.8,0.2-4.1,0.7c-1.3,0.5-2.5,1.2-3.6,2.1v71.8c1.2-0.7,2.4-1.2,3.7-1.5c1.3-0.3,2.6-0.5,4-0.5l31-1 V17.9L140.6,18.8z" class="st2"/></g></g><g><g><g><path d="M123,130.8V64.7c0-1.5-1.2-2.7-2.7-2.7H24.1c-1.5,0-2.7,1.2-2.7,2.7v66.2H123z" class="st2"/><rect width="94.8" height="59" x="24.8" y="66.4" class="st3"/><path d="M131.3,134c-3,0-113.9,0-117.9,0s-4.6-5.4-4.6-5.4h127C135.9,128.6,134.4,134,131.3,134z" class="st2"/><rect width="1.6" height="1.5" x="71.7" y="64.4" class="st4"/><polygon points="119.6 66.5 77.1 66.5 119.6 106.1" class="st5"/><g><defs><rect id="SVGID_1_" width="94.8" height="59" x="24.8" y="66.4"/></defs><clipPath id="SVGID_2_"><use xlink:href="#SVGID_1_" style="overflow:visible"/></clipPath></g></g></g><g id="Layer_1_4_"><g id="Azure_3_"><g><path d="M78.1,99.5c-2,0-3.6,1.2-4.4,2.9H45.5l0,0c-4.7,0-8.6-3.9-8.6-8.6c0-4.8,3.9-8.6,8.6-8.6l0,0h0.1l0,0h3.9 c0.2-1,0.5-2,0.9-2.9c0.2-0.3,0.3-0.7,0.5-1c2-3.4,5.7-5.7,9.9-5.7c3.9,0,7.2,1.9,9.2,4.6c1.2-0.6,2.4-1,3.7-1.3 c-2.7-4.3-7.5-7.2-13-7.2c-6.4,0-11.9,3.9-14.2,9.6c0,0,0,0,0,0.1l0,0c0,0,0,0,0-0.1h-1.1C38.6,81.3,33,86.9,33,93.8 c0,6.9,5.6,12.5,12.5,12.5h28.3c0.8,1.7,2.4,2.9,4.4,2.9c2.7,0,4.9-2.2,4.9-4.9C82.9,101.7,80.8,99.5,78.1,99.5z" class="st6"/><path d="M93.1,120.9c8.5,0,15.8-7.2,15.8-15.6S102,90.1,93.6,89.9c-2.9-5.7-8.7-9.6-15.5-9.6 c-8.3,0-15.2,5.8-16.8,13.5c-4,0.4-7.5,2.6-9.6,5.6h20.5c1.4-1.7,3.6-2.9,6-2.9c4.2,0,7.7,3.4,7.7,7.7c0,4.2-3.4,7.7-7.7,7.7 c-2.4,0-4.5-1.1-6-2.9h-23c0.9,6.5,6.1,11.8,12.9,11.8L93.1,120.9L93.1,120.9z" class="st6"/></g></g></g></g></g></svg>