<svg xmlns="http://www.w3.org/2000/svg" xmlns:xlink="http://www.w3.org/1999/xlink" id="Layer_1" x="0" y="0" version="1.1" viewBox="0 0 200 144" xml:space="preserve" style="enable-background:new 0 0 200 144"><style type="text/css">.st2{fill:#fff}.st6{opacity:.3;fill:#b4a0ff}.st8{fill:#2e2e2e}.st9{fill:#e3e3e3}.st10{fill:#adadad}.st11{fill:#96bcce}.st12{fill:#619bb5}.st13{fill:#447995}.st14{fill:#767576}.st15{fill:#90908f}.st16{fill:#2f75bb}.st17{fill:none;stroke:#757575;stroke-width:.5847;stroke-miterlimit:10}.st19{fill:#428ecc}.st20{fill:#b0cdda}</style><rect width="200" height="144" y="0" class="st6"/><g><defs><rect id="SVGID_3_" width="200" height="148" y="-4"/></defs><clipPath id="SVGID_2_"><use xlink:href="#SVGID_3_" style="overflow:visible"/></clipPath><g style="clip-path:url(#SVGID_2_)"><g><path d="M61.4,170.4H18.7c-5.3,0-9.7-4.3-9.7-9.7V51.6c0-5.3,4.3-9.7,9.7-9.7h42.7c5.3,0,9.7,4.3,9.7,9.7v109.1 C71,166,66.7,170.4,61.4,170.4z" class="st8"/><rect width="54.2" height="95" x="13" y="58.9" class="st9"/><circle cx="40.3" cy="48.9" r="1.1" class="st10"/><g><path d="M45.6,55.3H34.5c-0.6,0-1.1-0.5-1.1-1.1c0-0.6,0.5-1.1,1.1-1.1h11.1c0.6,0,1.1,0.5,1.1,1.1 C46.8,54.8,46.3,55.3,45.6,55.3z" class="st10"/></g><polygon points="67.2 107.3 67.2 58.9 18.8 58.9" class="st2"/><g><rect width="39.7" height="34.3" x="19.8" y="86.3" class="st11"/><rect width="44.4" height="9.3" x="17.7" y="81.7" class="st12"/><g><g><rect width="29.6" height="3.2" x="25.2" y="96.9" class="st13"/></g><g><rect width="29.6" height="3.2" x="25.2" y="102.9" class="st13"/></g><g><rect width="29.6" height="3.2" x="25.2" y="108.9" class="st13"/></g></g></g></g><g><g><path d="M185.4,170.1c-4.4,1-11.9,1.9-25.2,1.9s-23.2-1-26.9-1.9c-3.7-1-6.3-3.2-6.3-6.8V50.9 c0-3.6,2.4-5.8,6.4-6.4c5.2-0.8,16.5-1.7,26.6-1.7c10.1,0,17.8,0.5,25.2,1.7c4.3,0.7,6.4,2.9,6.4,6.5v112.2 C191.7,166.9,189.8,169.1,185.4,170.1z" class="st8"/><rect width="58.4" height="101.3" x="130.1" y="57.1" class="st14"/><circle cx="159.2" cy="49.2" r="1.3" class="st14"/><circle cx="139.2" cy="50.2" r="1" class="st14"/><polygon points="188.4 107.1 188.4 57.1 133.9 57.1" class="st15"/></g><path d="M171.9,93.4l-8.9,8.9l-1.8-1.8l5.8-6.1h-16.8v-2.5H167l-6.1-6.1l1.8-1.8L171.9,93.4z M145.2,94.5h2.5v-2.5 h-2.5V94.5z M140.3,94.5h2.5v-2.5h-2.5V94.5z M150.2,77.1v12.4h-9.9V77.1H150.2z M147.7,79.6h-5v7.5h5V79.6z M155.2,77.1v12.4 h2.5v-9.9h19.9V107h-19.9V97h-2.5v12.4H180V77.1H155.2z" class="st9"/></g><g><path d="M134.3,170.9H68.7c-1.6,0-2.9-1.3-2.9-2.9V35.8c0-1.6,1.3-2.9,2.9-2.9h65.5c1.6,0,2.9,1.3,2.9,2.9V168 C137.2,169.6,135.9,170.9,134.3,170.9z" class="st8"/><rect width="60.6" height="100.6" x="70.9" y="49.5" class="st16"/><g><path d="M110.3,41.3H92.1c-1,0-1.8-0.8-1.8-1.8s0.8-1.8,1.8-1.8h18.1c1,0,1.8,0.8,1.8,1.8S111.2,41.3,110.3,41.3z" class="st17"/></g><polygon points="131.5 104.2 131.5 49.5 76.8 49.5" class="st19"/><g><polygon points="125.6 92 128.7 95.1 110.3 113.5 101.1 104.4 104.2 101.3 110.3 107.4" class="st2"/><g><g><g><rect width="33.1" height="5.5" x="87.7" y="65.2" class="st20"/></g><g><rect width="6.4" height="5.5" x="77.9" y="65.2" class="st20"/></g></g><g><g><rect width="33.1" height="5.5" x="87.7" y="74.8" class="st20"/></g><g><rect width="6.4" height="5.5" x="77.9" y="74.8" class="st20"/></g></g><g><g><rect width="33.1" height="5.5" x="87.7" y="84.4" class="st20"/></g><g><rect width="6.4" height="5.5" x="77.9" y="84.4" class="st20"/></g></g></g></g></g></g></g></svg>