<svg xmlns="http://www.w3.org/2000/svg" xmlns:xlink="http://www.w3.org/1999/xlink" id="Layer_1" width="80" height="80" x="0" y="0" enable-background="new 0 0 80 80" version="1.1" viewBox="0 0 80 80" xml:space="preserve"><g><circle cx="40" cy="40" r="35" fill="#7E1B96"/><path fill="#721481" d="M15.735,14.79C9.122,21.157,5,30.094,5,40c0,19.33,15.67,35,35,35c9.906,0,18.843-4.122,25.21-10.735 L15.735,14.79z"/><g><path fill="#FFF" d="M23.669,26.959v11.074h10.746v2.481H23.669v13.351h-2.728V24.457h14.335v2.502H23.669z"/><path fill="#FFF" d="M60.481,34.67h-5.455l-1.436,6.624h5.804l-0.451,1.887h-5.722l-1.784,8.162h-2.112l1.764-8.162h-5.312 l-1.743,8.162h-2.112l1.743-8.162h-5.578l0.39-1.887h5.599l1.395-6.624h-5.845l0.41-1.887h5.824l1.764-8.326h2.112l-1.764,8.326 h5.332l1.784-8.326h2.092l-1.784,8.326h5.517L60.481,34.67z M47.602,34.67l-1.456,6.624h5.353l1.436-6.624H47.602z"/></g></g></svg>