<svg xmlns="http://www.w3.org/2000/svg" xmlns:xlink="http://www.w3.org/1999/xlink" x="0" y="0" version="1.1" viewBox="0 0 200 144" xml:space="preserve" style="enable-background:new 0 0 200 144"><style type="text/css">.st4{fill:#2e2e2e}.st8{fill:#5d5f5e}.st10{fill:#929090}.st16{opacity:.3;fill:#008272}.st17{clip-path:url(#SVGID_2_)}.st18{fill:#231f20}.st19{fill:#5d605f}.st20{fill:#acacac}.st21{fill:#5d5d5d}.st22{clip-path:url(#SVGID_4_)}.st23{fill:#474748}.st24{fill:#929497}.st25{fill:#1772b8}.st26{fill:#767778}.st27{fill:#a86527}.st28{fill:#048273}.st29{clip-path:url(#SVGID_6_)}.st30{fill:#c7c7c7}.st31{fill:#909090}.st44{fill:none}.st45{font-family:&apos;MyriadPro-Regular&apos;}.st46{font-size:12px}</style><g id="Layer_1"><g><rect width="200" height="148" y="-2" class="st16"/><g><defs><rect id="SVGID_1_" width="200" height="139.4" y="6.7"/></defs><clipPath id="SVGID_2_"><use xlink:href="#SVGID_1_" style="overflow:visible"/></clipPath><g class="st17"><g><path d="M172.6,115.2V43.5c0-1.6-1.3-2.8-2.8-2.8H70.2c-1.6,0-2.8,1.3-2.8,2.8v71.8H172.6z" class="st18"/><path d="M181.2,123.2c-3.2,0-117.9,0-121.9,0s-4.7-4.2-4.7-4.2h131.4C185.9,119,184.4,123.2,181.2,123.2z" class="st18"/><rect width="1.7" height="1.5" x="119.5" y="43.1" class="st19"/><rect width="3" height="2.8" x="118.8" y="107.4" class="st19"/><g><rect width="94.3" height="58.5" x="72.8" y="46.1" class="st4"/><polygon points="167.1 46.1 123 46.1 167.1 87.4" class="st8"/></g><polygon points="54.6 119 67.4 114.4 172.6 114.4 185.9 119" class="st20"/><polygon points="69.7 117 73.3 115.3 166.2 115.3 170.1 117" class="st21"/></g><g><defs><path id="SVGID_3_" d="M172.6,115.2V43.5c0-1.6-1.3-2.8-2.8-2.8H70.2c-1.6,0-2.8,1.3-2.8,2.8v71.8H172.6z"/></defs><clipPath id="SVGID_4_"><use xlink:href="#SVGID_3_" style="overflow:visible"/></clipPath><g class="st22"><rect width="207.2" height="117.3" x="-11.5" y="29.2" class="st23"/><rect width="1.3" height="102.3" x="175.3" y="43.1" class="st24"/><rect width="181.9" height="101.6" x="-6.7" y="42.9" class="st4"/><g><rect width="1.9" height="1.3" x="106.9" y="44.8" class="st8"/><rect width="1.9" height="1.3" x="106.9" y="47.3" class="st8"/><rect width="1.9" height="1.3" x="106.9" y="49.9" class="st8"/><rect width="1.9" height="1.3" x="106.9" y="52.5" class="st8"/><rect width="1.9" height="1.3" x="106.9" y="55" class="st8"/><rect width="1.9" height="1.3" x="106.9" y="57.6" class="st8"/><rect width="1.9" height="1.3" x="106.9" y="60.2" class="st8"/><rect width="1.9" height="1.3" x="106.9" y="62.8" class="st8"/><rect width="1.9" height="1.3" x="106.9" y="65.3" class="st8"/><rect width="1.9" height="1.3" x="106.9" y="67.9" class="st8"/><rect width="1.9" height="1.3" x="106.9" y="70.5" class="st8"/><rect width="1.9" height="1.3" x="106.9" y="73" class="st8"/><rect width="1.9" height="1.3" x="106.9" y="75.6" class="st8"/><rect width="1.9" height="1.3" x="106.9" y="78.2" class="st8"/><rect width="1.9" height="1.3" x="106.9" y="80.7" class="st8"/><rect width="1.9" height="1.3" x="106.9" y="83.3" class="st8"/><rect width="1.9" height="1.3" x="106.9" y="85.9" class="st8"/><rect width="1.9" height="1.3" x="106.9" y="88.5" class="st8"/><rect width="1.9" height="1.3" x="106.9" y="91" class="st8"/><rect width="1.9" height="1.3" x="106.9" y="93.6" class="st8"/><rect width="1.9" height="1.3" x="106.9" y="96.2" class="st8"/><rect width="1.9" height="1.3" x="106.9" y="98.7" class="st8"/><rect width="1.9" height="1.3" x="106.9" y="101.3" class="st8"/><rect width="1.9" height="1.3" x="106.9" y="103.9" class="st8"/><rect width="1.9" height="1.3" x="106.9" y="106.4" class="st8"/><rect width="1.9" height="1.3" x="106.9" y="109" class="st8"/><rect width="1.9" height="1.3" x="106.9" y="111.6" class="st8"/><rect width="1.9" height="1.3" x="106.9" y="114.2" class="st8"/><rect width="1.9" height="1.3" x="106.9" y="116.7" class="st8"/><rect width="1.9" height="1.3" x="106.9" y="119.3" class="st8"/><rect width="1.9" height="1.3" x="106.9" y="121.9" class="st8"/><rect width="1.9" height="1.3" x="106.9" y="124.4" class="st8"/></g><rect width="1.9" height="1.3" x="109.8" y="44.8" class="st25"/><rect width="1.9" height="1.3" x="109.8" y="47.3" class="st25"/><rect width="1.9" height="1.3" x="109.8" y="49.9" class="st25"/><rect width="1.9" height="1.3" x="109.8" y="52.5" class="st25"/><rect width="26.2" height="1.3" x="113.1" y="44.8" class="st8"/><rect width="15.6" height="1.3" x="113.1" y="47.3" class="st8"/><rect width="21.7" height="1.3" x="113.1" y="49.9" class="st8"/><rect width="12.1" height="1.3" x="113.1" y="52.5" class="st8"/><rect width="24.2" height="1.3" x="109.8" y="57.6" class="st10"/><rect width="17.3" height="1.3" x="135.6" y="57.6" class="st26"/><rect width="24.1" height="1.3" x="109.8" y="60.2" class="st10"/><rect width="9.4" height="1.3" x="109.8" y="62.8" class="st10"/><rect width="9.4" height="1.3" x="109.8" y="65.3" class="st10"/><rect width="9.4" height="1.3" x="109.8" y="67.9" class="st10"/><rect width="28.1" height="1.3" x="120.6" y="62.8" class="st27"/><rect width="50" height="1.3" x="120.6" y="65.3" class="st27"/><rect width="28.1" height="1.3" x="120.6" y="67.9" class="st27"/><rect width="3.9" height="1.3" x="150" y="67.9" class="st25"/><rect width="1.9" height="1.3" x="109.8" y="70.5" class="st8"/><rect width="27.9" height="1.3" x="109.8" y="73" class="st28"/><rect width="34.9" height="1.3" x="109.8" y="75.6" class="st28"/><rect width="31.1" height="1.3" x="109.8" y="78.2" class="st8"/><rect width="34.6" height="1.3" x="109.8" y="80.7" class="st8"/><rect width="38.6" height="1.3" x="109.8" y="83.3" class="st8"/><rect width="1.9" height="1.3" x="115.5" y="85.9" class="st28"/><rect width="1.9" height="1.3" x="115.5" y="88.5" class="st28"/><rect width="1.9" height="1.3" x="115.5" y="91" class="st28"/><rect width="11.4" height="1.3" x="121.2" y="85.9" class="st28"/><rect width="11.4" height="1.3" x="121.2" y="88.5" class="st28"/><rect width="3.9" height="1.3" x="118.8" y="91" class="st28"/><rect width="43.7" height="1.3" x="115.5" y="93.6" class="st8"/><rect width="32.6" height="1.3" x="118.8" y="96.2" class="st8"/><rect width="46.9" height="1.3" x="118.8" y="98.7" class="st8"/><rect width="32.6" height="1.3" x="118.8" y="101.3" class="st8"/><rect width="20.6" height="1.3" x="122.1" y="103.9" class="st8"/><rect width="2.3" height="1.3" x="119.3" y="106.4" class="st8"/><rect width="1.9" height="1.3" x="109.8" y="111.6" class="st8"/><rect width="1.9" height="1.3" x="115.9" y="109" class="st8"/><rect width="1.9" height="1.3" x="113.1" y="111.6" class="st8"/><rect width="1.9" height="1.3" x="109.8" y="116.7" class="st25"/><rect width="19.2" height="1.3" x="113.1" y="116.7" class="st8"/><rect width="8.9" height="1.3" x="133.5" y="116.7" class="st25"/><rect width="1.9" height="1.3" x="113.1" y="119.3" class="st25"/><rect width="1.9" height="1.3" x="113.1" y="121.9" class="st25"/><rect width="23.9" height="1.3" x="116.4" y="119.3" class="st8"/><rect width="23.9" height="1.3" x="116.4" y="121.9" class="st8"/><rect width="1.9" height="1.3" x="109.8" y="124.4" class="st8"/><rect width="1.2" height="1.3" x="165.7" y="40.1" class="st8"/><rect width="1.2" height="1.3" x="168.6" y="40.1" class="st8"/><rect width="1.2" height="1.3" x="171.4" y="40.1" class="st8"/><rect width="1.2" height="1.3" x="174.3" y="40.1" class="st8"/></g></g><g><g><defs><circle id="SVGID_5_" cx="79.3" cy="67.6" r="44.7"/></defs><clipPath id="SVGID_6_"><use xlink:href="#SVGID_5_" style="overflow:visible"/></clipPath><g class="st29"><rect width="380.5" height="215.4" x="-180" y="-33.3" class="st23"/><rect width="2.3" height="187.8" x="163.1" y="-7.9" class="st24"/><rect width="334.1" height="186.7" x="-171.3" y="-8.3" class="st4"/><g><rect width="3.5" height="2.3" x="37.4" y="-.1" class="st8"/><rect width="3.5" height="2.3" x="37.4" y="4.6" class="st8"/><rect width="3.5" height="2.3" x="37.4" y="9.3" class="st8"/><rect width="3.5" height="2.3" x="37.4" y="14" class="st8"/><rect width="3.5" height="2.3" x="37.4" y="18.8" class="st8"/><rect width="3.5" height="2.3" x="37.4" y="23.5" class="st8"/><rect width="3.5" height="2.3" x="37.4" y="28.2" class="st8"/><rect width="3.5" height="2.3" x="37.4" y="32.9" class="st8"/><rect width="3.5" height="2.3" x="37.4" y="37.6" class="st8"/><rect width="3.5" height="2.3" x="37.4" y="42.3" class="st8"/><rect width="3.5" height="2.3" x="37.4" y="47.1" class="st8"/><rect width="3.5" height="2.3" x="37.4" y="51.8" class="st8"/><rect width="3.5" height="2.3" x="37.4" y="56.5" class="st8"/><rect width="3.5" height="2.3" x="37.4" y="61.2" class="st8"/><rect width="3.5" height="2.3" x="37.4" y="65.9" class="st8"/><rect width="3.5" height="2.3" x="37.4" y="70.7" class="st8"/><rect width="3.5" height="2.3" x="37.4" y="75.4" class="st8"/><rect width="3.5" height="2.3" x="37.4" y="80.1" class="st8"/><rect width="3.5" height="2.3" x="37.4" y="84.8" class="st8"/><rect width="3.5" height="2.3" x="37.4" y="89.5" class="st8"/><rect width="3.5" height="2.3" x="37.4" y="94.3" class="st8"/><rect width="3.5" height="2.3" x="37.4" y="99" class="st8"/><rect width="3.5" height="2.3" x="37.4" y="103.7" class="st8"/><rect width="3.5" height="2.3" x="37.4" y="108.4" class="st8"/><rect width="3.5" height="2.3" x="37.4" y="113.1" class="st8"/><rect width="3.5" height="2.3" x="37.4" y="117.9" class="st8"/><rect width="3.5" height="2.3" x="37.4" y="122.6" class="st8"/><rect width="3.5" height="2.3" x="37.4" y="127.3" class="st8"/><rect width="3.5" height="2.3" x="37.4" y="132" class="st8"/><rect width="3.5" height="2.3" x="37.4" y="136.7" class="st8"/><rect width="3.5" height="2.3" x="37.4" y="141.5" class="st8"/></g><rect width="3.5" height="2.3" x="42.6" y="-.1" class="st25"/><rect width="3.5" height="2.3" x="42.6" y="4.6" class="st25"/><rect width="3.5" height="2.3" x="42.6" y="9.3" class="st25"/><rect width="28.7" height="2.3" x="48.7" y="-.1" class="st8"/><rect width="39.8" height="2.3" x="48.7" y="4.6" class="st8"/><rect width="22.2" height="2.3" x="48.7" y="9.3" class="st8"/><rect width="44.4" height="2.3" x="42.8" y="18.8" class="st10"/><rect width="31.8" height="2.3" x="90" y="18.8" class="st26"/><rect width="44.2" height="2.3" x="42.8" y="23.5" class="st10"/><rect width="17.2" height="2.3" x="42.8" y="28.2" class="st10"/><rect width="17.2" height="2.3" x="42.8" y="32.9" class="st10"/><rect width="17.2" height="2.3" x="42.8" y="37.6" class="st10"/><rect width="51.6" height="2.3" x="62.6" y="28.2" class="st27"/><rect width="91.9" height="2.3" x="62.6" y="32.9" class="st27"/><rect width="51.6" height="2.3" x="62.6" y="37.6" class="st27"/><rect width="7.2" height="2.3" x="116.6" y="37.6" class="st25"/><rect width="3.5" height="2.3" x="42.6" y="42.3" class="st8"/><rect width="51.2" height="2.3" x="42.6" y="47.1" class="st28"/><rect width="64" height="2.3" x="42.6" y="51.8" class="st28"/><rect width="57" height="2.3" x="42.6" y="56.5" class="st8"/><rect width="63.6" height="2.3" x="42.6" y="61.2" class="st8"/><rect width="71" height="2.3" x="42.6" y="65.9" class="st8"/><rect width="3.5" height="2.3" x="53.1" y="70.7" class="st28"/><rect width="3.5" height="2.3" x="53.1" y="75.4" class="st28"/><rect width="3.5" height="2.3" x="53.1" y="80.1" class="st28"/><rect width="20.9" height="2.3" x="63.5" y="70.7" class="st28"/><rect width="20.9" height="2.3" x="63.5" y="75.4" class="st28"/><rect width="7.2" height="2.3" x="59.2" y="80.1" class="st28"/><rect width="80.3" height="2.3" x="53.1" y="84.8" class="st8"/><rect width="59.9" height="2.3" x="59.2" y="89.5" class="st8"/><rect width="86.2" height="2.3" x="59.2" y="94.3" class="st8"/><rect width="59.9" height="2.3" x="59.2" y="99" class="st8"/><rect width="37.9" height="2.3" x="65.3" y="103.7" class="st8"/><rect width="4.3" height="2.3" x="60.1" y="108.4" class="st8"/><rect width="3.5" height="2.3" x="42.6" y="117.9" class="st8"/><rect width="3.5" height="2.3" x="54" y="113.1" class="st8"/><rect width="3.5" height="2.3" x="48.7" y="117.9" class="st8"/><rect width="3.5" height="2.3" x="42.6" y="127.3" class="st25"/><rect width="35.3" height="2.3" x="48.7" y="127.3" class="st8"/><rect width="16.3" height="2.3" x="86.2" y="127.3" class="st25"/><rect width="3.5" height="2.3" x="48.7" y="132" class="st25"/><rect width="3.5" height="2.3" x="48.7" y="136.7" class="st25"/><rect width="44" height="2.3" x="54.8" y="132" class="st8"/><rect width="44" height="2.3" x="54.8" y="136.7" class="st8"/><rect width="3.5" height="2.3" x="42.6" y="141.5" class="st8"/></g></g><g><g><path d="M91,28.1C68.6,22.3,45.6,35.7,39.8,58s5.7,42,28,47.8S114,99.4,119.9,77S113.3,34,91,28.1z M69,111.5 C45.4,105.3,29.2,80,35.5,56.4c6.2-23.6,31.1-39.7,54.7-33.5s39.1,33.5,32.9,57.1C116.9,103.6,92.6,117.7,69,111.5z" class="st18"/></g><g><path d="M-37.3,133l-1.1-1.9c-2-3.4-0.8-7.9,2.6-9.9l67.3-39.2c3.4-2,7.9-0.8,9.9,2.6l1.1,1.9 c2,3.4,0.8,7.9-2.6,9.9l-67.3,39.2C-30.9,137.6-35.3,136.4-37.3,133z" class="st18"/><path d="M40.2,82.9c-1.8-2.3-5-3-7.6-1.5L-37,121.9c-2.6,1.5-3.6,4.7-2.4,7.3L40.2,82.9z" class="st8"/><path d="M24.9,105.1L41,95.7c0,0,0,0,0,0l-8.4-14.3c0,0,0,0,0,0l-16.1,9.4L24.9,105.1z" class="st30"/><path d="M41,95.7l-6.2-10.6l-16.1,9.4l6.2,10.6L41,95.7C41,95.7,41,95.7,41,95.7z" class="st31"/></g><g><path d="M89.2,23.8C66.9,17.9,43.9,31.3,38,53.6s7.5,45.3,29.9,51.2s45.3-7.5,51.2-29.9S111.6,29.7,89.2,23.8z M67.3,107.1c-23.6-6.2-37.7-30.5-31.5-54.1C42,29.5,66.2,15.3,89.8,21.5s37.7,30.5,31.5,54.1 C115.1,99.2,90.9,113.4,67.3,107.1z" class="st30"/></g></g></g></g></g></g></g><g id="titles"><rect width="161.7" height="25.6" y="-23.5" class="st44"/><text class="st45 st46" transform="matrix(1 0 0 1 -2.034505e-05 -14.9927)">Using ASP.NET Core</text></g></svg>